# xmcd CD database file
#
# Track frame offsets:
#	150
#	25409
#	52990
#	80621
#	110666
#	133908
#	157260
#	171778
#	200064
#	225093
#	262388
#
# Disc length: 3670 seconds
#
# Revision: 0
# Processed by: cddbd v1.5.2PL0 Copyright (c) Steve Scherf et al.
# Submitted via: CDex 1.51
#
DISCID=9e0e540b
DTITLE=Rembrandt Frerichs - Continental
DYEAR=2012
DGENRE=Jazz
TTITLE0=Carrousel
TTITLE1=Arrivé am Clue
TTITLE2=La Alpujarra
TTITLE3=Zamurka
TTITLE4=Boemel
TTITLE5=Countdown
TTITLE6=Ji Yuan
TTITLE7=Musique au Fond
TTITLE8=The Fountainhead
TTITLE9=Compendium
TTITLE10=Offering
EXTD=YEAR: 2012
EXTT0=
EXTT1=
EXTT2=
EXTT3=
EXTT4=
EXTT5=
EXTT6=
EXTT7=
EXTT8=
EXTT9=
EXTT10=
PLAYORDER=
